<?xml version="1.0" encoding="UTF-8"?>
<svg width="32px" height="32px" viewBox="0 0 32 32" version="1.1" xmlns="http://www.w3.org/2000/svg" xmlns:xlink="http://www.w3.org/1999/xlink">
    <!-- Generator: Sketch 50.2 (55047) - http://www.bohemiancoding.com/sketch -->
    <title>Group 3</title>
    <desc>Created with Sketch.</desc>
    <defs>
        <polygon id="path-1" points="1.4479638e-05 0.127449774 31.8724344 0.127449774 31.8724344 32 1.4479638e-05 32"></polygon>
    </defs>
    <g id="Page-1" stroke="none" stroke-width="1" fill="none" fill-rule="evenodd">
        <g id="LabCoinOnboarding-Copy" transform="translate(-27.000000, -105.000000)">
            <g id="Group-3" transform="translate(27.000000, 105.000000)">
                <mask id="mask-2" fill="white">
                    <use xlink:href="#path-1"></use>
                </mask>
                <g id="Clip-2"></g>
                <path d="M23.7655891,13.9985086 L22.0662588,16.110943 C22.0267294,16.1581466 22.0070371,16.2172235 22.0070371,16.288029 L22.0070371,18.3060561 C22.0070371,18.3846805 21.9785122,18.4524452 21.9216072,18.5096398 C21.8645575,18.5665448 21.796648,18.5952145 21.7180235,18.5952145 C21.6392543,18.5952145 21.5725032,18.5665448 21.5174805,18.5096398 C21.4623131,18.4524452 21.434657,18.3846805 21.434657,18.3060561 L21.434657,16.2820923 C21.434657,16.2112869 21.4130824,16.1503276 21.3697882,16.0992145 L19.6823312,13.9985086 C19.6074715,13.9041014 19.5955982,13.8027439 19.6468561,13.694581 C19.6978244,13.5864181 19.7845575,13.5322643 19.906476,13.5322643 C20.0008833,13.5322643 20.0755982,13.5677394 20.1306208,13.6385448 L21.4998154,15.3497484 C21.5546932,15.4205538 21.6295529,15.456029 21.7238154,15.456029 C21.8183674,15.456029 21.8929376,15.4205538 21.948105,15.3497484 L23.3112181,13.6385448 C23.3662407,13.5677394 23.4411005,13.5322643 23.5355077,13.5322643 L23.5412995,13.5322643 C23.6632181,13.5322643 23.7499511,13.5864181 23.8009195,13.694581 C23.8521774,13.8027439 23.8403041,13.9041014 23.7655891,13.9985086 Z M23.5355077,26.1677756 C23.3427837,26.4352145 23.0811367,26.6082462 22.7507113,26.6870154 C22.7035077,26.6988887 22.6228561,26.7087348 22.5087566,26.7165538 L22.4851548,26.7165538 C22.4063855,26.7165538 22.3396344,26.688029 22.284467,26.631124 C22.2294443,26.5739294 22.201933,26.5060199 22.201933,26.4273955 C22.201933,26.35659 22.2265484,26.2927348 22.2757792,26.2356851 C22.3248652,26.1787801 22.3849557,26.1482281 22.4557611,26.1441738 C22.538295,26.1364995 22.5953448,26.1285357 22.6269104,26.1205719 C22.7960326,26.0696036 22.9286661,25.9641919 23.0252452,25.8049158 C23.1215348,25.6456398 23.169752,25.4578389 23.169752,25.2413683 C23.169752,25.0486443 23.108648,24.8735855 22.9867294,24.7161919 C22.8648109,24.558943 22.7055348,24.4585991 22.5087566,24.415305 L22.4792181,24.415305 C22.4635801,24.415305 22.4517068,24.4132778 22.4438878,24.4093683 C22.3769919,24.4015493 22.3200869,24.3691149 22.2727385,24.3120652 C22.2255348,24.2550154 22.201933,24.1931873 22.201933,24.1261466 L22.201933,24.12021 C22.201933,24.045495 22.227562,23.973676 22.2786751,23.9048977 C22.3297882,23.8361195 22.3927747,23.7918118 22.4674896,23.7721195 C22.4753086,23.76821 22.4871819,23.7643005 22.5028199,23.7602462 C22.5186027,23.7563367 22.5284489,23.7543095 22.5323584,23.7543095 C22.6702045,23.6994317 22.7811186,23.6019837 22.8658244,23.4622552 C22.9503855,23.3226715 22.9926661,23.1683186 22.9926661,22.9991964 C22.9926661,22.8182009 22.9534262,22.656029 22.874657,22.5122462 C22.7960326,22.3687529 22.6719421,22.2733321 22.5028199,22.2261285 C22.4950009,22.222219 22.4841412,22.2193231 22.4705303,22.2171511 C22.4566299,22.2154136 22.4459149,22.2142552 22.4379511,22.2142552 C22.3710552,22.2025267 22.315019,22.1690787 22.2698425,22.1139113 C22.2245213,22.0588887 22.201933,21.9980742 22.201933,21.9310335 L22.201933,21.9252416 C22.201933,21.8466172 22.2294443,21.7797213 22.284467,21.7245538 C22.3396344,21.6695312 22.4063855,21.6420199 22.4851548,21.6420199 L22.5146932,21.6420199 C22.5933176,21.6498389 22.6386389,21.6556308 22.6505122,21.6596851 C22.9847023,21.7304905 23.2336072,21.8888977 23.3969376,22.1346172 C23.5601231,22.3804814 23.6417882,22.6647167 23.6417882,22.9873231 C23.6417882,23.2037937 23.5798154,23.41621 23.4558697,23.6245719 C23.3320688,23.8330787 23.1638154,23.9806262 22.9513991,24.0672145 C23.2030552,24.1419294 23.4117068,24.2884633 23.5767747,24.5068163 C23.7421321,24.7251692 23.8246661,24.9700199 23.8246661,25.2413683 C23.8246661,25.5916308 23.7282317,25.9003367 23.5355077,26.1677756 Z M21.0218425,24.0731511 C21.0218425,24.1595946 20.9923041,24.2322824 20.9332271,24.2913593 C20.874295,24.3504362 20.8014624,24.3799747 20.715019,24.3799747 L20.6617339,24.3799747 C20.5752905,24.3799747 20.5026027,24.3504362 20.4435258,24.2913593 C20.3844489,24.2322824 20.3549104,24.1595946 20.3549104,24.0731511 L20.3549104,21.9252416 C20.3549104,21.8386534 20.3844489,21.7658208 20.4435258,21.7068887 C20.5026027,21.6478118 20.5752905,21.6184181 20.6617339,21.6184181 L20.715019,21.6184181 C20.8014624,21.6184181 20.874295,21.6478118 20.9332271,21.7068887 C20.9923041,21.7658208 21.0218425,21.8386534 21.0218425,21.9252416 L21.0218425,24.0731511 Z M18.2482679,10.2494407 C18.2482679,10.3280652 18.2188742,10.3969882 18.1599421,10.4560652 C18.1008652,10.5149973 18.0319421,10.5445357 17.9533176,10.5445357 L17.9356525,10.5445357 C17.8568833,10.5445357 17.7891186,10.5149973 17.7320688,10.4560652 C17.675019,10.3969882 17.6464941,10.3280652 17.6464941,10.2494407 L17.6582226,5.6704 C17.6582226,5.59177557 17.6877611,5.52299729 17.746838,5.46392036 C17.8059149,5.40484344 17.8745484,5.37544977 17.9533176,5.37544977 C18.0319421,5.37544977 18.1008652,5.40484344 18.1599421,5.46392036 C18.2188742,5.52299729 18.2482679,5.59177557 18.2482679,5.6704 L18.2482679,10.2494407 Z M18.1363403,26.6280833 C18.0694443,26.6949792 17.9906751,26.7284271 17.9003222,26.7284271 C17.8373357,26.7284271 17.7763765,26.7077213 17.7172995,26.6664543 C17.6583674,26.6251873 17.6171005,26.574943 17.5934986,26.5160109 L17.1982045,25.5009882 L16.9267113,24.8165357 L16.932648,24.8165357 L16.3188561,23.2292778 C16.2636887,23.087667 16.203743,23.015848 16.1388742,23.0138208 C16.0740054,23.0119385 16.0140597,23.0817303 15.9588923,23.2231964 L15.3394534,24.8165357 L15.0856253,25.4656579 L14.6665846,26.5160109 C14.6429828,26.574943 14.6017158,26.6241738 14.5427837,26.6634136 C14.4837068,26.7027982 14.4227475,26.7224905 14.3597611,26.7224905 C14.2692633,26.7224905 14.1916525,26.6900561 14.1267837,26.6251873 C14.0617701,26.5601738 14.0293357,26.4824181 14.0293357,26.3920652 C14.0293357,26.3604995 14.0371548,26.3212597 14.0529376,26.2740561 L15.8349466,21.8189611 C15.8899692,21.6812597 15.9921955,21.6123367 16.1419149,21.6123367 C16.2913448,21.6123367 16.393571,21.6812597 16.4487385,21.8189611 L18.2129376,26.2681195 C18.2287204,26.3153231 18.2365394,26.35659 18.2365394,26.3920652 C18.2365394,26.4824181 18.2032362,26.5611873 18.1363403,26.6280833 Z M14.0232543,18.1703819 L15.8052633,13.7152869 C15.860286,13.5775855 15.9625122,13.5086624 16.1122317,13.5086624 C16.2616615,13.5086624 16.3638878,13.5775855 16.4190552,13.7152869 L18.1832543,18.1644452 C18.1990371,18.2116489 18.2068561,18.2529158 18.2068561,18.2882462 C18.2068561,18.3787439 18.1735529,18.4573683 18.106657,18.5242643 C18.0397611,18.5911602 17.9609919,18.6247529 17.8706389,18.6247529 C17.8076525,18.6247529 17.7466932,18.6040471 17.6876163,18.5627801 C17.6286842,18.5215131 17.5874172,18.4712688 17.5638154,18.4123367 L17.1683765,17.397314 L16.8968833,16.7128615 L16.9028199,16.7128615 L16.2891729,15.1256036 C16.2340054,14.9839928 16.1740597,14.9121738 16.109191,14.9101466 C16.0443222,14.9082643 15.9843765,14.9780561 15.929209,15.119667 L15.3097701,16.7128615 L15.0559421,17.3618389 L14.6369014,18.4123367 C14.6132995,18.4712688 14.5720326,18.5203548 14.5131005,18.5597394 C14.4540235,18.599124 14.3930643,18.6188163 14.3300778,18.6188163 C14.2395801,18.6188163 14.1619692,18.5863819 14.0971005,18.5215131 C14.0320869,18.4564995 13.9996525,18.3787439 13.9996525,18.2882462 C13.9996525,18.2568253 14.0074715,18.2174407 14.0232543,18.1703819 Z M12.5658787,9.25222805 C12.3298606,9.64969412 12.0150733,9.9623095 11.6218063,10.1905086 C11.2244851,10.4226172 10.793571,10.5385991 10.3294986,10.5385991 C9.86919095,10.5385991 9.44030407,10.4226172 9.0431276,10.1905086 C8.65753484,9.966219 8.34477466,9.65345882 8.10484706,9.25222805 C7.86882896,8.85505158 7.75081991,8.42413756 7.75081991,7.95992036 C7.75081991,7.49584796 7.86680181,7.06507873 8.0990552,6.66775747 C8.331019,6.2704362 8.64377919,5.95767602 9.03719095,5.72947692 C9.43451222,5.49736833 9.86528145,5.38138643 10.3294986,5.38138643 C10.7974805,5.38138643 11.2302769,5.49736833 11.627743,5.72947692 C12.028829,5.96158552 12.3436163,6.2743457 12.5716706,6.66775747 C12.803924,7.06507873 12.9200507,7.49584796 12.9200507,7.95992036 C12.9200507,8.42413756 12.8018968,8.85505158 12.5658787,9.25222805 Z M11.7839783,17.6599747 C11.4318335,18.1104362 10.978476,18.4024905 10.4239059,18.5361376 C10.2860597,18.5636489 10.146476,18.5852235 10.00501,18.6011511 L9.98140814,18.6011511 C9.90263891,18.6011511 9.83574299,18.573495 9.78072036,18.5184724 C9.72555294,18.463305 9.69818643,18.3965538 9.69818643,18.3179294 C9.69818643,18.2469792 9.72265701,18.1841376 9.77174299,18.1289701 C9.82097376,18.0739475 9.88091946,18.0445538 9.95186968,18.0404995 C10.0462769,18.0286262 10.1524127,18.0090787 10.2705665,17.9814226 C10.6757068,17.8674679 11.0071457,17.6372416 11.2647385,17.2911783 C11.5223312,16.9449701 11.6513448,16.5379475 11.6513448,16.069676 C11.6513448,15.5465267 11.5213176,15.1147439 11.2618425,14.7744724 C11.0022226,14.4342009 10.6480507,14.2168615 10.1997611,14.1223095 C10.1445937,14.110581 10.0639421,14.1008796 9.95780633,14.0929158 C9.88685611,14.0890063 9.82589683,14.0585991 9.77478371,14.0014045 C9.72352579,13.9444995 9.69818643,13.8804995 9.69818643,13.8096941 C9.69818643,13.7310697 9.72555294,13.6641738 9.78072036,13.6090063 C9.83574299,13.5539837 9.90263891,13.5264724 9.98140814,13.5264724 L10.00501,13.5264724 C10.0992724,13.5342914 10.1938244,13.5461647 10.2882317,13.5618027 C10.8703131,13.6602643 11.353209,13.9305991 11.7369195,14.3730968 C12.1203403,14.8157394 12.3120507,15.3772597 12.3120507,16.0579475 C12.3120507,16.6755041 12.1361231,17.2095131 11.7839783,17.6599747 Z M11.6837792,26.6664543 C11.6267294,26.7233593 11.5588199,26.752029 11.4801955,26.752029 L8.53561629,26.752029 C8.45684706,26.752029 8.38922715,26.7233593 8.33217738,26.6664543 C8.2751276,26.6094045 8.24645792,26.541495 8.24645792,26.4628706 L8.24645792,21.8719566 C8.24645792,21.7933321 8.2751276,21.7255674 8.33217738,21.6683729 C8.38922715,21.6114679 8.45684706,21.5827982 8.53561629,21.5827982 L8.54155294,21.5827982 C8.62017738,21.5827982 8.68808688,21.6114679 8.74528145,21.6683729 C8.80218643,21.7255674 8.83071131,21.7933321 8.83071131,21.8719566 L8.83071131,26.0497665 C8.83071131,26.0852416 8.84243982,26.1146353 8.86618643,26.1382371 C8.88978824,26.1618389 8.9193267,26.1737122 8.95465701,26.1737122 L11.4801955,26.1737122 C11.5588199,26.1737122 11.6267294,26.2023819 11.6837792,26.2592869 C11.7406842,26.3163367 11.7693538,26.3842462 11.7693538,26.4628706 C11.7693538,26.541495 11.7406842,26.6094045 11.6837792,26.6664543 Z M8.10484706,18.3355946 L8.10484706,13.792029 C8.10484706,13.717314 8.13235837,13.6514317 8.18752579,13.5942371 C8.24254842,13.5373321 8.30944434,13.5086624 8.38821357,13.5086624 L8.48841267,13.5086624 C8.5631276,13.5086624 8.62900995,13.5373321 8.68605973,13.5942371 C8.7431095,13.6514317 8.77163439,13.717314 8.77163439,13.792029 L8.77163439,18.0523729 L8.77163439,18.3355946 C8.77163439,18.4101647 8.7431095,18.4760471 8.68605973,18.5332416 C8.62900995,18.5901466 8.5631276,18.6188163 8.48841267,18.6188163 L8.38821357,18.6188163 C8.30944434,18.6188163 8.24254842,18.5901466 8.18752579,18.5332416 C8.13235837,18.4760471 8.10484706,18.4101647 8.10484706,18.3355946 Z M14.4129014,5.6704 C14.4129014,5.59177557 14.4412814,5.52299729 14.498476,5.46392036 C14.5555258,5.40484344 14.6232905,5.37544977 14.7019149,5.37544977 C14.7502769,5.37544977 14.7944398,5.38790226 14.8354172,5.4102009 C14.8423674,5.41353122 14.8488833,5.41744072 14.8555439,5.42135023 C14.8610462,5.42497014 14.8662588,5.42887964 14.8716163,5.43293394 C14.9004308,5.45335023 14.9272181,5.47811041 14.9498063,5.51112398 L16.9914353,8.3945991 C17.0267656,8.44585701 17.0444308,8.50290679 17.0444308,8.56574842 C17.0444308,8.67593846 17.005191,8.75659005 16.9265665,8.80770317 C16.8753086,8.84317828 16.8182588,8.86084344 16.7554172,8.86084344 C16.6492814,8.86084344 16.5684851,8.81943167 16.5134624,8.73689774 L14.99701,6.59072579 L14.99701,10.2494407 C14.99701,10.3280652 14.9674715,10.3969882 14.9085394,10.4560652 C14.8496072,10.5149973 14.7806842,10.5445357 14.7019149,10.5445357 L14.6901864,10.5445357 C14.6114172,10.5445357 14.5427837,10.5149973 14.483562,10.4560652 C14.4246299,10.3969882 14.3950914,10.3280652 14.3950914,10.2494407 L14.4129014,5.6704 Z M20.3607023,5.73541357 C20.3607023,5.64491584 20.3932814,5.56716018 20.4581502,5.5022914 C20.523019,5.43742262 20.6007747,5.40484344 20.6912724,5.40484344 C20.7817701,5.40484344 20.8603946,5.43742262 20.9272905,5.5022914 C20.9940416,5.56716018 21.0276344,5.64491584 21.0276344,5.73541357 L21.0276344,5.97143167 L21.0276344,7.61182986 L22.7505665,7.61182986 C22.8293357,7.61182986 22.8971005,7.6383276 22.9541502,7.69146787 C23.0112,7.74460814 23.0397249,7.8104905 23.0397249,7.88925973 L23.0397249,7.89505158 C23.0397249,7.97382081 23.0122136,8.04071674 22.957191,8.09573937 C22.9020235,8.15076199 22.8351276,8.1782733 22.7565032,8.1782733 L21.0276344,8.1782733 L21.0276344,9.94855385 L21.0276344,10.1845719 C21.0276344,10.2750697 20.9940416,10.3526805 20.9272905,10.4176941 C20.8603946,10.4825629 20.7817701,10.5149973 20.6912724,10.5149973 C20.6007747,10.5149973 20.523019,10.4825629 20.4581502,10.4176941 C20.3932814,10.3526805 20.3607023,10.2750697 20.3607023,10.1845719 L20.3607023,5.73541357 Z M23.5589647,10.2317756 C23.5589647,10.3733864 23.5462226,10.4560652 23.5207385,10.479667 C23.4951095,10.5032688 23.411562,10.5149973 23.2699511,10.5149973 L22.4968833,10.5149973 C22.3552724,10.5149973 22.2725937,10.5032688 22.2489919,10.479667 C22.22539,10.4560652 22.2136615,10.3733864 22.2136615,10.2317756 C22.2136615,10.0901647 22.22539,10.0076308 22.2489919,9.98388416 C22.2725937,9.96028235 22.3552724,9.94855385 22.4968833,9.94855385 L23.2699511,9.94855385 C23.411562,9.94855385 23.4951095,9.96028235 23.5207385,9.98388416 C23.5462226,10.0076308 23.5589647,10.0901647 23.5589647,10.2317756 Z M22.2489919,5.44031855 C22.2725937,5.41671674 22.3552724,5.40484344 22.4968833,5.40484344 L23.2699511,5.40484344 C23.411562,5.40484344 23.4951095,5.41671674 23.5207385,5.44031855 C23.5462226,5.46392036 23.5589647,5.5465991 23.5589647,5.68820995 C23.5589647,5.82982081 23.5462226,5.91235475 23.5207385,5.93595656 C23.4951095,5.95955837 23.411562,5.97143167 23.2699511,5.97143167 L22.4968833,5.97143167 C22.3552724,5.97143167 22.2725937,5.95955837 22.2489919,5.93595656 C22.22539,5.91235475 22.2136615,5.82982081 22.2136615,5.68820995 C22.2136615,5.5465991 22.22539,5.46392036 22.2489919,5.44031855 Z M19.7511095,0.127449774 L1.4479638e-05,0.127449774 L1.4479638e-05,16.1539475 L1.4479638e-05,31.9749792 L1.4479638e-05,32.000029 L31.8724489,32.000029 L31.8724489,12.2487891 C31.8724489,5.5544181 26.4456253,0.127449774 19.7511095,0.127449774 Z" id="Fill-1" fill="#FFFFFF" mask="url(#mask-2)"></path>
                <path d="M11.739714,6.5496905 C11.5981032,6.40807964 11.4644561,6.29991674 11.3384833,6.22520181 C11.0355692,6.04420633 10.6992072,5.9537086 10.3295421,5.9537086 C9.97537014,5.9537086 9.64103529,6.04420633 9.32639276,6.22520181 C9.1926009,6.30773575 9.05866425,6.41604344 8.92516199,6.5496905 C8.77544253,6.69926516 8.66742443,6.83493937 8.60052851,6.95685792 C8.42358733,7.26368145 8.33497195,7.59816109 8.33497195,7.96000724 C8.33497195,8.31403439 8.42546968,8.64851403 8.60646516,8.96301176 C8.68508959,9.09694842 8.79325249,9.23262262 8.93109864,9.37017919 C9.08052851,9.51975385 9.21620271,9.62791674 9.33812127,9.69481267 C9.45222081,9.7656181 9.61149683,9.82860452 9.81609412,9.88362715 C10.0167819,9.93879457 10.1859041,9.96630588 10.3236054,9.96630588 L10.3295421,9.96630588 C10.6952977,9.96630588 11.0296326,9.87580814 11.3325466,9.69481267 C11.4663385,9.61618824 11.6020127,9.50802534 11.739714,9.37017919 C11.8774154,9.23262262 11.9855783,9.09694842 12.0643475,8.96301176 C12.2451982,8.64851403 12.3356959,8.31403439 12.3356959,7.96000724 C12.3356959,7.60583529 12.2451982,7.27164525 12.0643475,6.95685792 C11.9855783,6.82321086 11.8774154,6.68739186 11.739714,6.5496905" id="Fill-4" fill="#FFFFFF" mask="url(#mask-2)"></path>
            </g>
        </g>
    </g>
</svg>