<?xml version="1.0" encoding="UTF-8"?>
<svg width="65px" height="28px" viewBox="0 0 65 28" version="1.1" xmlns="http://www.w3.org/2000/svg" xmlns:xlink="http://www.w3.org/1999/xlink">
    <!-- Generator: Sketch 50.2 (55047) - http://www.bohemiancoding.com/sketch -->
    <title>Group 4</title>
    <desc>Created with Sketch.</desc>
    <defs></defs>
    <g id="Page-1" stroke="none" stroke-width="1" fill="none" fill-rule="evenodd">
        <g id="LabCoinOnboardingGreen-Copy-2" transform="translate(-295.000000, -37.000000)">
            <g id="Group-4" transform="translate(295.000000, 34.000000)">
                <g id="Group-2" transform="translate(39.000000, 3.000000)">
                    <path d="M26,0.00594316438 C25.9638798,0.00594316438 25.9290973,0 25.8929771,0 C15.0716205,0 9.65224653,14.5310369 17.3043865,23.029762 C19.8328033,25.8379071 22.9538597,27.0517985 26,26.99831 L26,0.00594316438 Z" id="Fill-1" fill="#FFFFFF" transform="translate(19.861111, 13.500000) rotate(-180.000000) translate(-19.861111, -13.500000) "></path>
                    <path d="M12.2777778,0.00594316438 C12.2416575,0.00594316438 12.2068751,0 12.1707548,0 C1.34939823,0 -4.06997569,14.5310369 3.58216423,23.029762 C6.11058109,25.8379071 9.23163746,27.0517985 12.2777778,26.99831 L12.2777778,0.00594316438 Z" id="Fill-1" fill="#2DCCCD" transform="translate(6.138889, 13.500000) rotate(-180.000000) translate(-6.138889, -13.500000) "></path>
                </g>
                <path d="M15.098,14 L9.47,14 L9.47,4.228 L10.31,4.228 L10.31,13.272 L15.098,13.272 L15.098,14 Z M24.152,14 L23.256,14 C22.612,14 22.36,13.65 22.318,13.118 L22.318,12.866 L22.248,12.866 C21.926,13.622 21.226,14.168 19.98,14.168 C18.468,14.168 17.544,13.384 17.544,12.054 C17.544,10.78 18.356,9.982 20.512,9.982 L22.276,9.982 L22.276,9.1 C22.276,7.896 21.576,7.294 20.4,7.294 C19.406,7.294 18.72,7.7 18.328,8.484 L17.782,8.092 C18.16,7.266 19.042,6.608 20.442,6.608 C22.066,6.608 23.074,7.504 23.074,9.016 L23.074,13.3 L24.152,13.3 L24.152,14 Z M20.106,13.496 C21.324,13.496 22.276,12.88 22.276,11.914 L22.276,10.584 L20.512,10.584 C19.014,10.584 18.384,11.074 18.384,11.858 L18.384,12.222 C18.384,13.048 19.07,13.496 20.106,13.496 Z M26.948,14 L26.948,3.64 L27.746,3.64 L27.746,7.924 L27.788,7.924 C28.194,7.14 28.936,6.608 30.028,6.608 C31.82,6.608 32.898,7.966 32.898,10.388 C32.898,12.81 31.82,14.168 30.028,14.168 C28.936,14.168 28.194,13.636 27.788,12.852 L27.746,12.852 L27.746,14 L26.948,14 Z M29.762,13.454 C31.218,13.454 32.044,12.46 32.044,10.892 L32.044,9.884 C32.044,8.316 31.218,7.322 29.762,7.322 C28.684,7.322 27.746,7.938 27.746,8.96 L27.746,11.816 C27.746,12.838 28.684,13.454 29.762,13.454 Z" id="Lab" fill="#FFFFFF"></path>
                <path d="M3.83600002,30.168 C1.51200002,30.168 0.336000024,28.488 0.336000024,25.114 C0.336000024,21.74 1.51200002,20.06 3.83600002,20.06 C5.44600002,20.06 6.27200002,21.012 6.72000002,22.132 L6.00600002,22.454 C5.64200002,21.502 5.02600002,20.788 3.83600002,20.788 C2.10000002,20.788 1.23200002,22.132 1.23200002,24.456 L1.23200002,25.772 C1.23200002,28.096 2.10000002,29.44 3.83600002,29.44 C5.02600002,29.44 5.64200002,28.726 6.00600002,27.774 L6.72000002,28.096 C6.27200002,29.216 5.44600002,30.168 3.83600002,30.168 Z M12.35,30.168 C10.39,30.168 9.20000001,28.768 9.20000001,26.388 C9.20000001,24.008 10.39,22.608 12.35,22.608 C14.31,22.608 15.5,24.008 15.5,26.388 C15.5,28.768 14.31,30.168 12.35,30.168 Z M12.35,29.468 C13.764,29.468 14.646,28.544 14.646,26.836 L14.646,25.94 C14.646,24.232 13.764,23.308 12.35,23.308 C10.936,23.308 10.054,24.232 10.054,25.94 L10.054,26.836 C10.054,28.544 10.936,29.468 12.35,29.468 Z M21.648,20.844 C21.144,20.844 20.948,20.606 20.948,20.284 L20.948,20.102 C20.948,19.78 21.144,19.542 21.648,19.542 C22.152,19.542 22.348,19.78 22.348,20.102 L22.348,20.284 C22.348,20.606 22.152,20.844 21.648,20.844 Z M18.54,30 L18.54,29.314 L21.256,29.314 L21.256,23.462 L18.54,23.462 L18.54,22.776 L22.054,22.776 L22.054,29.314 L24.588,29.314 L24.588,30 L18.54,30 Z M28.174,30 L27.376,30 L27.376,22.776 L28.174,22.776 L28.174,23.896 L28.23,23.896 C28.51,23.224 29.126,22.608 30.344,22.608 C31.898,22.608 32.822,23.588 32.822,25.338 L32.822,30 L32.024,30 L32.024,25.478 C32.024,23.994 31.352,23.322 30.134,23.322 C29.14,23.322 28.174,23.826 28.174,24.918 L28.174,30 Z" id="Coin" fill="#FFFFFF"></path>
            </g>
        </g>
    </g>
</svg>